<svg width="280" height="41" viewBox="0 0 280 41" fill="none" xmlns="http://www.w3.org/2000/svg">
<path d="M254.744 22.6426V22.5312C254.744 21.7031 254.832 20.9512 255.008 20.2754C255.188 19.5957 255.422 19 255.711 18.4883C256 17.9766 256.312 17.5527 256.648 17.2168C256.988 16.877 257.318 16.6328 257.639 16.4844L257.943 17.334C257.721 17.502 257.498 17.7324 257.275 18.0254C257.057 18.3145 256.857 18.6719 256.678 19.0977C256.498 19.5234 256.354 20.0195 256.244 20.5859C256.139 21.1523 256.086 21.7969 256.086 22.5195V22.6543C256.086 23.377 256.139 24.0234 256.244 24.5938C256.354 25.1602 256.498 25.6562 256.678 26.082C256.857 26.5078 257.057 26.8691 257.275 27.166C257.498 27.4629 257.721 27.6973 257.943 27.8691L257.639 28.6953C257.318 28.543 256.988 28.2988 256.648 27.9629C256.312 27.627 256 27.2031 255.711 26.6914C255.422 26.1797 255.188 25.5859 255.008 24.9102C254.832 24.2305 254.744 23.4746 254.744 22.6426ZM264.436 21.002V22.4375C264.436 23.0938 264.369 23.6543 264.236 24.1191C264.104 24.584 263.912 24.9648 263.662 25.2617C263.412 25.5547 263.113 25.7715 262.766 25.9121C262.418 26.0488 262.031 26.1172 261.605 26.1172C261.266 26.1172 260.949 26.0742 260.656 25.9883C260.363 25.8984 260.1 25.7617 259.865 25.5781C259.635 25.3906 259.436 25.1523 259.268 24.8633C259.104 24.5742 258.977 24.2285 258.887 23.8262C258.801 23.4238 258.758 22.9609 258.758 22.4375V21.002C258.758 20.3457 258.824 19.7871 258.957 19.3262C259.094 18.8652 259.287 18.4883 259.537 18.1953C259.787 17.9023 260.086 17.6895 260.434 17.5566C260.781 17.4199 261.168 17.3516 261.594 17.3516C261.938 17.3516 262.254 17.3945 262.543 17.4805C262.836 17.5664 263.098 17.7012 263.328 17.8848C263.562 18.0645 263.762 18.2988 263.926 18.5879C264.09 18.873 264.215 19.2168 264.301 19.6191C264.391 20.0176 264.436 20.4785 264.436 21.002ZM262.889 22.6484V20.7852C262.889 20.457 262.869 20.1719 262.83 19.9297C262.795 19.6836 262.742 19.4746 262.672 19.3027C262.602 19.1309 262.514 18.9922 262.408 18.8867C262.303 18.7773 262.182 18.6973 262.045 18.6465C261.908 18.5957 261.758 18.5703 261.594 18.5703C261.391 18.5703 261.209 18.6113 261.049 18.6934C260.889 18.7715 260.754 18.8965 260.645 19.0684C260.535 19.2402 260.451 19.4688 260.393 19.7539C260.338 20.0352 260.311 20.3789 260.311 20.7852V22.6484C260.311 22.9766 260.328 23.2637 260.363 23.5098C260.402 23.7559 260.457 23.9668 260.527 24.1426C260.602 24.3184 260.689 24.4629 260.791 24.5762C260.896 24.6855 261.018 24.7676 261.154 24.8223C261.291 24.873 261.441 24.8984 261.605 24.8984C261.812 24.8984 261.994 24.8574 262.15 24.7754C262.311 24.6934 262.445 24.5645 262.555 24.3887C262.664 24.209 262.746 23.9766 262.801 23.6914C262.859 23.4023 262.889 23.0547 262.889 22.6484ZM268.531 22.5312V22.6426C268.531 23.4551 268.439 24.1992 268.256 24.875C268.076 25.5508 267.838 26.1465 267.541 26.6621C267.248 27.1777 266.928 27.6074 266.58 27.9512C266.236 28.2949 265.898 28.543 265.566 28.6953L265.262 27.8691C265.484 27.7012 265.705 27.4707 265.924 27.1777C266.143 26.8848 266.342 26.5234 266.521 26.0938C266.705 25.6641 266.85 25.1641 266.955 24.5938C267.064 24.0234 267.119 23.377 267.119 22.6543V22.5195C267.119 21.7969 267.062 21.1504 266.949 20.5801C266.84 20.0098 266.693 19.5117 266.51 19.0859C266.326 18.6562 266.125 18.2949 265.906 18.002C265.688 17.7051 265.473 17.4746 265.262 17.3105L265.566 16.4844C265.898 16.6328 266.236 16.8809 266.58 17.2285C266.928 17.5723 267.248 18.0039 267.541 18.5234C267.838 19.0391 268.076 19.6348 268.256 20.3105C268.439 20.9824 268.531 21.7227 268.531 22.5312Z" fill="#274C5B"/>
<rect width="200" height="40" rx="20" fill="#FAFAFA"/>
<rect x="210.5" y="1.5" width="69" height="39" rx="19.5" stroke="#E0E0E0"/>
<circle cx="231.5" cy="21" r="17.5" fill="#274C5B"/>
<path d="M230.401 27.0003C230.774 27.0003 231.076 26.7018 231.076 26.3337C231.076 25.9655 230.774 25.667 230.401 25.667C230.028 25.667 229.726 25.9655 229.726 26.3337C229.726 26.7018 230.028 27.0003 230.401 27.0003Z" fill="white" stroke="white" stroke-width="1.5" stroke-linecap="round" stroke-linejoin="round"/>
<path d="M235.128 27.0003C235.501 27.0003 235.803 26.7018 235.803 26.3337C235.803 25.9655 235.501 25.667 235.128 25.667C234.755 25.667 234.453 25.9655 234.453 26.3337C234.453 26.7018 234.755 27.0003 235.128 27.0003Z" fill="white" stroke="white" stroke-width="1.5" stroke-linecap="round" stroke-linejoin="round"/>
<path d="M225 15H227.089L228.656 23.7671H237.013" stroke="white" stroke-width="2" stroke-linecap="round" stroke-linejoin="round"/>
<path d="M228.376 21.6456L236.799 21.704C236.859 21.704 236.918 21.6834 236.965 21.6456C237.011 21.6078 237.043 21.5552 237.055 21.4967L237.995 16.8553C238.003 16.8179 238.002 16.7793 237.993 16.7423C237.983 16.7052 237.966 16.6707 237.941 16.6412C237.917 16.6117 237.886 16.5879 237.851 16.5716C237.816 16.5553 237.778 16.5468 237.739 16.5469L227.523 16.5469" stroke="white" stroke-width="2" stroke-linecap="round" stroke-linejoin="round"/>
<circle cx="179.5" cy="20.5" r="17.5" fill="#7EB693"/>
<path d="M186.102 25.8076L183.017 22.8322C183.76 21.8786 184.161 20.7178 184.159 19.5251C184.159 16.4786 181.589 14 178.43 14C175.27 14 172.7 16.4786 172.7 19.5251C172.7 22.5716 175.27 25.0502 178.43 25.0502C179.667 25.0515 180.87 24.6648 181.859 23.9485L184.945 26.9238C185.101 27.0585 185.305 27.1303 185.514 27.1247C185.724 27.119 185.923 27.0363 186.071 26.8934C186.219 26.7506 186.305 26.5585 186.311 26.3566C186.317 26.1546 186.242 25.9582 186.102 25.8076ZM174.337 19.5251C174.337 18.7446 174.577 17.9815 175.027 17.3325C175.477 16.6835 176.116 16.1777 176.864 15.879C177.611 15.5803 178.434 15.5022 179.228 15.6544C180.022 15.8067 180.751 16.1826 181.324 16.7345C181.896 17.2864 182.286 17.9896 182.444 18.7552C182.602 19.5207 182.521 20.3142 182.211 21.0354C181.901 21.7565 181.377 22.3728 180.703 22.8065C180.03 23.2401 179.239 23.4716 178.43 23.4716C177.345 23.4703 176.304 23.0542 175.537 22.3143C174.77 21.5745 174.338 20.5714 174.337 19.5251Z" fill="#FAFAFA"/>
</svg>
