<svg width="61" height="61" viewBox="0 0 61 61" fill="none" xmlns="http://www.w3.org/2000/svg">
<circle cx="30.6611" cy="30.0439" r="30" fill="#EFF6F1"/>
<path d="M41.3213 24.0024C40.5463 24.3391 39.7263 24.561 38.8873 24.6609C39.7691 24.1446 40.4322 23.3243 40.7523 22.3539C39.9186 22.8413 39.008 23.1834 38.0596 23.3653C37.6602 22.9468 37.1799 22.6138 36.6478 22.3866C36.1157 22.1595 35.543 22.0429 34.9644 22.044C32.6221 22.044 30.7265 23.912 30.7265 26.2147C30.7248 26.535 30.7616 26.8544 30.8358 27.166C29.1562 27.0872 27.5115 26.6587 26.0069 25.9079C24.5024 25.1572 23.1711 24.1006 22.0983 22.8058C21.7219 23.4403 21.5229 24.1642 21.522 24.9019C21.522 26.3482 22.2765 27.6265 23.4158 28.3754C22.7408 28.3594 22.0796 28.1808 21.4884 27.8546V27.9063C21.4884 29.9292 22.9518 31.6122 24.8887 31.9953C24.5245 32.0924 24.1492 32.1416 23.7722 32.1416C23.5047 32.1421 23.2379 32.1161 22.9755 32.0641C23.514 33.7213 25.0811 34.9264 26.9375 34.9609C25.4291 36.1234 23.5771 36.7517 21.6726 36.7471C21.3346 36.7466 20.9968 36.7265 20.6611 36.6868C22.5985 37.924 24.8506 38.5783 27.1493 38.5721C34.9554 38.5721 39.22 32.2148 39.22 26.7011C39.22 26.5203 39.2153 26.3395 39.2066 26.1631C40.0344 25.5743 40.7505 24.8426 41.3213 24.0024Z" fill="#274C5B"/>
</svg>
