<svg width="61" height="61" viewBox="0 0 61 61" fill="none" xmlns="http://www.w3.org/2000/svg">
<circle cx="30.6609" cy="30.1768" r="30" fill="#EFF6F1"/>
<path fill-rule="evenodd" clip-rule="evenodd" d="M39.9437 30.4611C39.9437 25.334 35.6266 21.1768 30.3023 21.1768C24.978 21.1768 20.6609 25.334 20.6609 30.4611C20.6609 35.095 24.186 38.9359 28.7958 39.6331V33.1457H26.3472V30.4611H28.7958V28.4156C28.7958 26.0892 30.2356 24.803 32.4376 24.803C33.4926 24.803 34.5962 24.9846 34.5962 24.9846V27.2696H33.3798C32.1828 27.2696 31.8083 27.985 31.8083 28.7203V30.4611H34.4821L34.0551 33.1457H31.8088V39.6339C36.4186 38.9372 39.9437 35.0962 39.9437 30.4611Z" fill="#274C5B"/>
</svg>
