<svg width="61" height="61" viewBox="0 0 61 61" fill="none" xmlns="http://www.w3.org/2000/svg">
<circle cx="30.6611" cy="30.0439" r="30" fill="#EFF6F1"/>
<path d="M30.4578 20.0439C25.0478 20.0439 20.6611 24.4286 20.6611 29.8362C20.6611 33.8449 23.0753 37.2897 26.526 38.8066C26.4998 38.1247 26.5216 37.3028 26.6966 36.5597C26.8846 35.764 27.9561 31.222 27.9561 31.222C27.9561 31.222 27.6412 30.5969 27.6412 29.6745C27.6412 28.2231 28.4809 27.139 29.5306 27.139C30.4228 27.139 30.8514 27.8078 30.8514 28.6078C30.8514 29.504 30.2785 30.8417 29.9854 32.0832C29.7405 33.1236 30.5059 33.9673 31.5337 33.9673C33.388 33.9673 34.6388 31.5848 34.6388 28.7608C34.6388 26.6144 33.1912 25.01 30.5627 25.01C27.5931 25.01 25.7388 27.2264 25.7388 29.7007C25.7388 30.5531 25.9924 31.1564 26.386 31.6198C26.5654 31.834 26.5916 31.9214 26.526 32.1662C26.4779 32.3455 26.3729 32.7783 26.3248 32.9531C26.2592 33.2023 26.058 33.2897 25.835 33.1979C24.4661 32.6384 23.8275 31.1433 23.8275 29.4559C23.8275 26.6756 26.1761 23.3401 30.8295 23.3401C34.5689 23.3401 37.0311 26.0461 37.0311 28.9488C37.0311 32.7914 34.8925 35.6591 31.7436 35.6591C30.6852 35.6591 29.6924 35.0864 29.3513 34.4395C29.3513 34.4395 28.7827 36.6952 28.6603 37.1323C28.4547 37.8886 28.048 38.6405 27.6762 39.2307C28.578 39.4966 29.5132 39.632 30.4534 39.6328C35.8634 39.6328 40.25 35.2482 40.25 29.8406C40.25 24.433 35.8678 20.0439 30.4578 20.0439Z" fill="#274C5B"/>
</svg>
