<svg width="84" height="19" viewBox="0 0 84 19" fill="none" xmlns="http://www.w3.org/2000/svg">
<g id="Star">
<path id="Star 3" d="M8.67514 2.88539C8.97682 1.96898 10.2732 1.96897 10.5749 2.88539L11.5597 5.87703C11.6947 6.28718 12.0777 6.56434 12.5095 6.56434H15.6684C16.6403 6.56434 17.041 7.81061 16.2512 8.37699L13.7182 10.1934C13.3631 10.4481 13.2145 10.9037 13.3511 11.3188L14.3239 14.2739C14.6264 15.1929 13.5776 15.9631 12.7913 15.3992L10.2078 13.5466C9.85941 13.2968 9.39059 13.2968 9.04225 13.5466L6.45871 15.3992C5.67245 15.9631 4.62357 15.1929 4.9261 14.2739L5.89892 11.3188C6.03555 10.9037 5.8869 10.4481 5.53182 10.1934L2.9988 8.37699C2.209 7.81061 2.60967 6.56434 3.58156 6.56434H6.74046C7.17226 6.56434 7.55529 6.28718 7.69031 5.87703L8.67514 2.88539Z" fill="#FFA858"/>
<path id="Star 4" d="M24.8585 3.036C25.1519 2.10238 26.4731 2.10238 26.7665 3.036L27.6552 5.86412C27.7861 6.28083 28.1724 6.56434 28.6092 6.56434H31.5543C32.5149 6.56434 32.923 7.78688 32.155 8.36386L29.7154 10.1966C29.3766 10.4511 29.235 10.8916 29.362 11.2959L30.2802 14.2178C30.5715 15.145 29.5026 15.9009 28.7255 15.3171L26.4131 13.5799C26.0573 13.3126 25.5677 13.3126 25.2119 13.5799L22.8995 15.3171C22.1224 15.9009 21.0535 15.145 21.3448 14.2178L22.263 11.2959C22.39 10.8916 22.2484 10.4511 21.9096 10.1966L19.47 8.36386C18.702 7.78688 19.1101 6.56434 20.0707 6.56434H23.0158C23.4526 6.56434 23.8389 6.28083 23.9698 5.86412L24.8585 3.036Z" fill="#FFA858"/>
<path id="Star 5" d="M41.0501 2.88539C41.3518 1.96898 42.6482 1.96897 42.9499 2.88539L43.9347 5.87703C44.0697 6.28718 44.4527 6.56434 44.8845 6.56434H48.0434C49.0153 6.56434 49.416 7.81061 48.6262 8.37699L46.0932 10.1934C45.7381 10.4481 45.5895 10.9037 45.7261 11.3188L46.6989 14.2739C47.0014 15.1929 45.9526 15.9631 45.1663 15.3992L42.5828 13.5466C42.2344 13.2968 41.7656 13.2968 41.4172 13.5466L38.8337 15.3992C38.0475 15.9631 36.9986 15.1929 37.3011 14.2739L38.2739 11.3188C38.4105 10.9037 38.2619 10.4481 37.9068 10.1934L35.3738 8.37699C34.584 7.81061 34.9847 6.56434 35.9566 6.56434H39.1155C39.5473 6.56434 39.9303 6.28718 40.0653 5.87703L41.0501 2.88539Z" fill="#FFA858"/>
<path id="Star 6" d="M57.2335 3.036C57.5269 2.10238 58.8481 2.10238 59.1415 3.036L60.0302 5.86412C60.1611 6.28083 60.5474 6.56434 60.9842 6.56434H63.9293C64.8899 6.56434 65.298 7.78688 64.53 8.36386L62.0904 10.1966C61.7516 10.4511 61.61 10.8916 61.737 11.2959L62.6552 14.2178C62.9465 15.145 61.8776 15.9009 61.1005 15.3171L58.7881 13.5799C58.4323 13.3126 57.9427 13.3126 57.5869 13.5799L55.2745 15.3171C54.4974 15.9009 53.4285 15.145 53.7198 14.2178L54.638 11.2959C54.765 10.8916 54.6234 10.4511 54.2846 10.1966L51.845 8.36386C51.077 7.78688 51.4851 6.56434 52.4457 6.56434H55.3908C55.8276 6.56434 56.2139 6.28083 56.3448 5.86412L57.2335 3.036Z" fill="#FFA858"/>
<path id="Star 7" d="M73.4251 2.88539C73.7268 1.96898 75.0232 1.96897 75.3249 2.88539L76.3097 5.87703C76.4447 6.28718 76.8277 6.56434 77.2595 6.56434H80.4184C81.3903 6.56434 81.791 7.81061 81.0012 8.37699L78.4682 10.1934C78.1131 10.4481 77.9645 10.9037 78.1011 11.3188L79.0739 14.2739C79.3764 15.1929 78.3276 15.9631 77.5413 15.3992L74.9578 13.5466C74.6094 13.2968 74.1406 13.2968 73.7922 13.5466L71.2087 15.3992C70.4225 15.9631 69.3736 15.1929 69.6761 14.2739L70.6489 11.3188C70.7855 10.9037 70.6369 10.4481 70.2818 10.1934L67.7488 8.37699C66.959 7.81061 67.3597 6.56434 68.3316 6.56434H71.4905C71.9223 6.56434 72.3053 6.28718 72.4403 5.87703L73.4251 2.88539Z" fill="#FFA858"/>
</g>
</svg>
